<?xml version="1.0" encoding="UTF-8" standalone="no"?>
<!DOCTYPE svg PUBLIC "-//W3C//DTD SVG 1.1//EN" "http://www.w3.org/Graphics/SVG/1.1/DTD/svg11.dtd">
<svg width="100%" height="100%" viewBox="0 0 2137 637" version="1.1" xmlns="http://www.w3.org/2000/svg" xmlns:xlink="http://www.w3.org/1999/xlink" xml:space="preserve" xmlns:serif="http://www.serif.com/" style="fill-rule:evenodd;clip-rule:evenodd;stroke-miterlimit:10;">
    <g id="Layer-2" serif:id="Layer 2" transform="matrix(4.16667,0,0,4.16667,0,0)">
        <g transform="matrix(1,0,0,1,0,36)">
            <rect x="-13.5" y="54" width="540" height="9" style="fill:none;stroke:rgb(200,200,200);stroke-width:0.5px;"/>
        </g>
        <g transform="matrix(0,1,1,0,512.938,94.5)">
            <path d="M-4.5,-4.5L4.5,-4.5" style="fill:none;fill-rule:nonzero;stroke:rgb(200,200,200);stroke-width:0.5px;"/>
        </g>
        <g transform="matrix(0,1,1,0,495.009,94.5)">
            <path d="M-4.5,-4.5L4.5,-4.5" style="fill:none;fill-rule:nonzero;stroke:rgb(200,200,200);stroke-width:0.5px;"/>
        </g>
        <g transform="matrix(0,1,1,0,476.947,94.5)">
            <path d="M-4.5,-4.5L4.5,-4.5" style="fill:none;fill-rule:nonzero;stroke:rgb(200,200,200);stroke-width:0.5px;"/>
        </g>
        <g transform="matrix(0,1,1,0,459.018,94.5)">
            <path d="M-4.5,-4.5L4.5,-4.5" style="fill:none;fill-rule:nonzero;stroke:rgb(200,200,200);stroke-width:0.5px;"/>
        </g>
        <g transform="matrix(0,1,1,0,440.956,94.5)">
            <path d="M-4.5,-4.5L4.5,-4.5" style="fill:none;fill-rule:nonzero;stroke:rgb(200,200,200);stroke-width:0.5px;"/>
        </g>
        <g transform="matrix(0,1,1,0,423.026,94.5)">
            <path d="M-4.5,-4.5L4.5,-4.5" style="fill:none;fill-rule:nonzero;stroke:rgb(200,200,200);stroke-width:0.5px;"/>
        </g>
        <g transform="matrix(0,1,1,0,404.965,94.5)">
            <path d="M-4.5,-4.5L4.5,-4.5" style="fill:none;fill-rule:nonzero;stroke:rgb(200,200,200);stroke-width:0.5px;"/>
        </g>
        <g transform="matrix(0,1,1,0,387.035,94.5)">
            <path d="M-4.5,-4.5L4.5,-4.5" style="fill:none;fill-rule:nonzero;stroke:rgb(200,200,200);stroke-width:0.5px;"/>
        </g>
        <g transform="matrix(0,1,1,0,368.974,94.5)">
            <path d="M-4.5,-4.5L4.5,-4.5" style="fill:none;fill-rule:nonzero;stroke:rgb(200,200,200);stroke-width:0.5px;"/>
        </g>
        <g transform="matrix(0,1,1,0,351.044,94.5)">
            <path d="M-4.5,-4.5L4.5,-4.5" style="fill:none;fill-rule:nonzero;stroke:rgb(200,200,200);stroke-width:0.5px;"/>
        </g>
        <g transform="matrix(0,1,1,0,332.982,94.5)">
            <path d="M-4.5,-4.5L4.5,-4.5" style="fill:none;fill-rule:nonzero;stroke:rgb(200,200,200);stroke-width:0.5px;"/>
        </g>
        <g transform="matrix(0,1,1,0,315.053,94.5)">
            <path d="M-4.5,-4.5L4.5,-4.5" style="fill:none;fill-rule:nonzero;stroke:rgb(200,200,200);stroke-width:0.5px;"/>
        </g>
        <g transform="matrix(0,1,1,0,296.991,94.5)">
            <path d="M-4.5,-4.5L4.5,-4.5" style="fill:none;fill-rule:nonzero;stroke:rgb(200,200,200);stroke-width:0.5px;"/>
        </g>
        <g transform="matrix(0,1,1,0,279.061,94.5)">
            <path d="M-4.5,-4.5L4.5,-4.5" style="fill:none;fill-rule:nonzero;stroke:rgb(200,200,200);stroke-width:0.5px;"/>
        </g>
        <g transform="matrix(0,1,1,0,261,94.5)">
            <path d="M-4.5,-4.5L4.5,-4.5" style="fill:none;fill-rule:nonzero;stroke:rgb(200,200,200);stroke-width:0.5px;"/>
        </g>
        <g transform="matrix(0,1,1,0,242.939,94.5)">
            <path d="M-4.5,-4.5L4.5,-4.5" style="fill:none;fill-rule:nonzero;stroke:rgb(200,200,200);stroke-width:0.5px;"/>
        </g>
        <g transform="matrix(0,1,1,0,225.009,94.5)">
            <path d="M-4.5,-4.5L4.5,-4.5" style="fill:none;fill-rule:nonzero;stroke:rgb(200,200,200);stroke-width:0.5px;"/>
        </g>
        <g transform="matrix(0,1,1,0,206.947,94.5)">
            <path d="M-4.5,-4.5L4.5,-4.5" style="fill:none;fill-rule:nonzero;stroke:rgb(200,200,200);stroke-width:0.5px;"/>
        </g>
        <g transform="matrix(0,1,1,0,189.018,94.5)">
            <path d="M-4.5,-4.5L4.5,-4.5" style="fill:none;fill-rule:nonzero;stroke:rgb(200,200,200);stroke-width:0.5px;"/>
        </g>
        <g transform="matrix(0,1,1,0,170.956,94.5)">
            <path d="M-4.5,-4.5L4.5,-4.5" style="fill:none;fill-rule:nonzero;stroke:rgb(200,200,200);stroke-width:0.5px;"/>
        </g>
        <g transform="matrix(0,1,1,0,153.026,94.5)">
            <path d="M-4.5,-4.5L4.5,-4.5" style="fill:none;fill-rule:nonzero;stroke:rgb(200,200,200);stroke-width:0.5px;"/>
        </g>
        <g transform="matrix(0,1,1,0,134.965,94.5)">
            <path d="M-4.5,-4.5L4.5,-4.5" style="fill:none;fill-rule:nonzero;stroke:rgb(200,200,200);stroke-width:0.5px;"/>
        </g>
        <g transform="matrix(0,1,1,0,117.035,94.5)">
            <path d="M-4.5,-4.5L4.5,-4.5" style="fill:none;fill-rule:nonzero;stroke:rgb(200,200,200);stroke-width:0.5px;"/>
        </g>
        <g transform="matrix(0,1,1,0,98.9736,94.5)">
            <path d="M-4.5,-4.5L4.5,-4.5" style="fill:none;fill-rule:nonzero;stroke:rgb(200,200,200);stroke-width:0.5px;"/>
        </g>
        <g transform="matrix(0,1,1,0,81.0439,94.5)">
            <path d="M-4.5,-4.5L4.5,-4.5" style="fill:none;fill-rule:nonzero;stroke:rgb(200,200,200);stroke-width:0.5px;"/>
        </g>
        <g transform="matrix(0,1,1,0,62.9824,94.5)">
            <path d="M-4.5,-4.5L4.5,-4.5" style="fill:none;fill-rule:nonzero;stroke:rgb(200,200,200);stroke-width:0.5px;"/>
        </g>
        <g transform="matrix(0,1,1,0,45.0527,94.5)">
            <path d="M-4.5,-4.5L4.5,-4.5" style="fill:none;fill-rule:nonzero;stroke:rgb(200,200,200);stroke-width:0.5px;"/>
        </g>
        <g transform="matrix(0,1,1,0,26.9912,94.5)">
            <path d="M-4.5,-4.5L4.5,-4.5" style="fill:none;fill-rule:nonzero;stroke:rgb(200,200,200);stroke-width:0.5px;"/>
        </g>
        <g transform="matrix(0,1,1,0,9.0615,94.5)">
            <path d="M-4.5,-4.5L4.5,-4.5" style="fill:none;fill-rule:nonzero;stroke:rgb(200,200,200);stroke-width:0.5px;"/>
        </g>
    </g>
    <g id="Layer-1" serif:id="Layer 1" transform="matrix(4.16667,0,0,4.16667,0,0)">
        <g transform="matrix(-0.998512,0.0545257,0.0545257,0.998512,16.4561,168.439)">
            <path d="M-162.471,-58.417C-159.204,1.415 -12.709,-3.652 -1.354,-58.417" style="fill:none;fill-rule:nonzero;stroke:rgb(35,31,32);stroke-width:1px;stroke-linecap:round;"/>
        </g>
        <g transform="matrix(1,0,0,1,17.9272,102.083)">
            <path d="M0,9.481L-4.427,-0.832L-5.75,10.313L0,9.481Z" style="fill:rgb(35,31,32);fill-rule:nonzero;"/>
        </g>
        <g>
            <text x="168.75px" y="54px" style="font-family:'Monaco';font-size:6px;fill:rgb(35,31,32);">matrice</text>
            <text x="168.75px" y="61.2px" style="font-family:'Monaco';font-size:6px;fill:rgb(35,31,32);">int**</text>
        </g>
        <g transform="matrix(0.996626,-0.0820772,-0.0820772,-0.996626,196.26,92.0451)">
            <path d="M-2.398,4.507C2.518,64.209 100.077,59.129 105.208,4.507" style="fill:none;fill-rule:nonzero;stroke:rgb(35,31,32);stroke-width:1px;stroke-linecap:round;"/>
        </g>
        <g transform="matrix(1,0,0,1,297.561,87.1892)">
            <path d="M0,-9.949L3.938,0.561L5.784,-10.51L0,-9.949Z" style="fill:rgb(35,31,32);fill-rule:nonzero;"/>
        </g>
        <g transform="matrix(0.999398,0.0346985,0.0346985,-0.999398,212.666,96.9265)">
            <path d="M-1.015,-4.361C1.065,-64.281 229.264,-59.257 249.428,-4.361" style="fill:none;fill-rule:nonzero;stroke:rgb(35,31,32);stroke-width:1px;stroke-linecap:round;"/>
        </g>
        <g transform="matrix(1,0,0,1,463.99,101.25)">
            <path d="M0,11.213L-0.49,0L-5.673,9.955L0,11.213Z" style="fill:rgb(35,31,32);fill-rule:nonzero;"/>
        </g>
        <g transform="matrix(-0.997525,-0.0703099,-0.0703099,0.997525,106.744,20.5812)">
            <path d="M-127.175,58.372C-122.962,-1.389 -9.1,3.69 -1.744,58.372" style="fill:none;fill-rule:nonzero;stroke:rgb(35,31,32);stroke-width:1px;stroke-linecap:round;"/>
        </g>
        <g transform="matrix(1,0,0,1,101.83,87.7504)">
            <path d="M0,-11.099L1.67,0L5.774,-10.447L0,-11.099Z" style="fill:rgb(35,31,32);fill-rule:nonzero;"/>
        </g>
        <g transform="matrix(0.99811,-0.0614514,-0.0614514,-0.99811,249.566,92.0843)">
            <path d="M-1.796,4.453C1.886,64.254 132.059,59.18 141.472,4.453" style="fill:none;fill-rule:nonzero;stroke:rgb(35,31,32);stroke-width:1px;stroke-linecap:round;"/>
        </g>
        <g transform="matrix(1,0,0,1,387.233,87.0081)">
            <path d="M0,-9.639L4.267,0.742L5.763,-10.381L0,-9.639Z" style="fill:rgb(35,31,32);fill-rule:nonzero;"/>
        </g>
        <g transform="matrix(1,0,0,1,0,36)">
            <rect x="4.5" y="54" width="54" height="9" style="fill:rgb(204,230,195);stroke:rgb(35,31,32);stroke-width:1px;"/>
        </g>
        <g transform="matrix(0,1,1,0,45.0039,94.5)">
            <path d="M-4.5,-4.5L4.5,-4.5" style="fill:none;fill-rule:nonzero;stroke:rgb(35,31,32);stroke-width:1px;"/>
        </g>
        <g transform="matrix(0,1,1,0,26.9961,94.5)">
            <path d="M-4.5,-4.5L4.5,-4.5" style="fill:none;fill-rule:nonzero;stroke:rgb(35,31,32);stroke-width:1px;"/>
        </g>
        <g transform="matrix(1,0,0,1,0,36)">
            <rect x="94.5" y="54" width="54" height="9" style="fill:rgb(204,230,195);stroke:rgb(35,31,32);stroke-width:1px;"/>
        </g>
        <g transform="matrix(0,1,1,0,135.004,94.5)">
            <path d="M-4.5,-4.5L4.5,-4.5" style="fill:none;fill-rule:nonzero;stroke:rgb(35,31,32);stroke-width:1px;"/>
        </g>
        <g transform="matrix(0,1,1,0,116.996,94.5)">
            <path d="M-4.5,-4.5L4.5,-4.5" style="fill:none;fill-rule:nonzero;stroke:rgb(35,31,32);stroke-width:1px;"/>
        </g>
        <g transform="matrix(1,0,0,1,0,36)">
            <rect x="292.5" y="54" width="54" height="9" style="fill:rgb(204,230,195);stroke:rgb(35,31,32);stroke-width:1px;"/>
        </g>
        <g transform="matrix(0,1,1,0,333.004,94.5)">
            <path d="M-4.5,-4.5L4.5,-4.5" style="fill:none;fill-rule:nonzero;stroke:rgb(35,31,32);stroke-width:1px;"/>
        </g>
        <g transform="matrix(0,1,1,0,314.996,94.5)">
            <path d="M-4.5,-4.5L4.5,-4.5" style="fill:none;fill-rule:nonzero;stroke:rgb(35,31,32);stroke-width:1px;"/>
        </g>
        <g transform="matrix(1,0,0,1,0,36)">
            <rect x="382.5" y="54" width="54" height="9" style="fill:rgb(204,230,195);stroke:rgb(35,31,32);stroke-width:1px;"/>
        </g>
        <g transform="matrix(0,1,1,0,423.004,94.5)">
            <path d="M-4.5,-4.5L4.5,-4.5" style="fill:none;fill-rule:nonzero;stroke:rgb(35,31,32);stroke-width:1px;"/>
        </g>
        <g transform="matrix(0,1,1,0,404.996,94.5)">
            <path d="M-4.5,-4.5L4.5,-4.5" style="fill:none;fill-rule:nonzero;stroke:rgb(35,31,32);stroke-width:1px;"/>
        </g>
        <g transform="matrix(1,0,0,1,0,36)">
            <rect x="454.5" y="54" width="54" height="9" style="fill:rgb(204,230,195);stroke:rgb(35,31,32);stroke-width:1px;"/>
        </g>
        <g transform="matrix(0,1,1,0,495.004,94.5)">
            <path d="M-4.5,-4.5L4.5,-4.5" style="fill:none;fill-rule:nonzero;stroke:rgb(35,31,32);stroke-width:1px;"/>
        </g>
        <g transform="matrix(0,1,1,0,476.996,94.5)">
            <path d="M-4.5,-4.5L4.5,-4.5" style="fill:none;fill-rule:nonzero;stroke:rgb(35,31,32);stroke-width:1px;"/>
        </g>
        <g transform="matrix(1,0,0,1,0,36)">
            <rect x="166.5" y="54" width="90" height="9" style="fill:rgb(204,214,237);stroke:rgb(35,31,32);stroke-width:1px;"/>
        </g>
        <g transform="matrix(0,1,1,0,243.004,94.5)">
            <path d="M-4.5,-4.5L4.5,-4.5" style="fill:none;fill-rule:nonzero;stroke:rgb(35,31,32);stroke-width:1px;"/>
        </g>
        <g transform="matrix(0,1,1,0,225.009,94.5)">
            <path d="M-4.5,-4.5L4.5,-4.5" style="fill:none;fill-rule:nonzero;stroke:rgb(35,31,32);stroke-width:1px;"/>
        </g>
        <g transform="matrix(0,1,1,0,206.991,94.5)">
            <path d="M-4.5,-4.5L4.5,-4.5" style="fill:none;fill-rule:nonzero;stroke:rgb(35,31,32);stroke-width:1px;"/>
        </g>
        <g transform="matrix(0,1,1,0,188.996,94.5)">
            <path d="M-4.5,-4.5L4.5,-4.5" style="fill:none;fill-rule:nonzero;stroke:rgb(35,31,32);stroke-width:1px;"/>
        </g>
        <text x="6.75px" y="96.75px" style="font-family:'Monaco';font-size:6px;fill:rgb(35,31,32);">int <tspan x="24.748px " y="96.75px ">i</tspan>nt <tspan x="42.746px " y="96.75px ">i</tspan>nt</text>
        <text x="96.75px" y="96.75px" style="font-family:'Monaco';font-size:6px;fill:rgb(35,31,32);">int <tspan x="114.748px " y="96.75px ">i</tspan>nt <tspan x="132.746px " y="96.75px ">i</tspan>nt</text>
        <text x="294.75px" y="96.75px" style="font-family:'Monaco';font-size:6px;fill:rgb(35,31,32);">int <tspan x="312.748px " y="96.75px ">i</tspan>nt <tspan x="330.746px " y="96.75px ">i</tspan>nt</text>
        <text x="384.75px" y="96.75px" style="font-family:'Monaco';font-size:6px;fill:rgb(35,31,32);">int <tspan x="402.748px " y="96.75px ">i</tspan>nt <tspan x="420.746px " y="96.75px ">i</tspan>nt</text>
        <text x="456.75px" y="96.75px" style="font-family:'Monaco';font-size:6px;fill:rgb(35,31,32);">int <tspan x="474.748px " y="96.75px ">i</tspan>nt <tspan x="492.746px " y="96.75px ">i</tspan>nt</text>
        <text x="186.75px" y="96.75px" style="font-family:'Monaco';font-size:6px;fill:rgb(35,31,32);">int*</text>
        <text x="168.75px" y="96.75px" style="font-family:'Monaco';font-size:6px;fill:rgb(35,31,32);">int*</text>
        <text x="204.75px" y="96.75px" style="font-family:'Monaco';font-size:6px;fill:rgb(35,31,32);">int* int* int*</text>
        <g transform="matrix(0,1,1,0,183.446,70.9455)">
            <path d="M-7.946,-7.946L7.946,-7.946" style="fill:none;fill-rule:nonzero;stroke:rgb(35,31,32);stroke-width:1px;"/>
        </g>
        <g transform="matrix(1,0,0,1,172.595,87.7502)">
            <path d="M0,-10.841L2.905,0L5.811,-10.841L0,-10.841Z" style="fill:rgb(35,31,32);fill-rule:nonzero;"/>
        </g>
    </g>
</svg>
